<svg width="16" height="17" viewBox="0 0 16 17" fill="none" xmlns="http://www.w3.org/2000/svg">
<g clip-path="url(#clip0_585_247)">
<path d="M1.97363 16H14.0264C14.4217 16 14.7583 15.8608 15.0596 15.5596C15.3539 15.2652 15.4999 14.914 15.5 14.4736V2.47363C15.5 2.0783 15.3608 1.74166 15.0596 1.44043C14.7652 1.1461 14.414 1.00007 13.9736 1H2.02637C1.58599 1.00007 1.23476 1.1461 0.94043 1.44043C0.646104 1.73476 0.500066 2.086 0.5 2.52637V14.4736C0.500066 14.914 0.646104 15.2652 0.94043 15.5596C1.24166 15.8608 1.5783 16 1.97363 16ZM2.02637 15.9863C1.61367 15.9863 1.24533 15.8391 0.953125 15.5469C0.660922 15.2547 0.513743 14.8863 0.513672 14.4736V2.47363C0.513672 2.07681 0.675221 1.73103 0.953125 1.45312C1.23103 1.17522 1.57682 1.01367 1.97363 1.01367H14.0264C14.4232 1.01367 14.769 1.17522 15.0469 1.45312C15.3248 1.73103 15.4863 2.07682 15.4863 2.47363V14.4736C15.4863 14.8863 15.3391 15.2547 15.0469 15.5469C14.769 15.8248 14.4232 15.9863 14.0264 15.9863H2.02637Z" fill="#172B4D" stroke="#172B4D"/>
</g>
<rect x="1" y="-1" width="14" height="14" transform="matrix(1 0 0 -1 0 14.5)" stroke="#172B4D" stroke-width="2"/>
<defs>
<clipPath id="clip0_585_247">
<rect width="16" height="16" transform="matrix(1 0 0 -1 0 16.5)" fill="white"/>
</clipPath>
</defs>
</svg>
