<svg width="16" height="16" viewBox="0 0 16 16" fill="none" xmlns="http://www.w3.org/2000/svg">
<path d="M2 4V3.33333C2 2.59695 2.59695 2 3.33333 2H4C4.36819 2 4.66667 2.29848 4.66667 2.66667C4.66667 3.03485 4.36819 3.33333 4 3.33333H3.33333V4C3.33333 4.36819 3.03485 4.66667 2.66667 4.66667C2.29848 4.66667 2 4.36819 2 4Z" fill="#626F86"/>
<path fill-rule="evenodd" clip-rule="evenodd" d="M4 5.33333C4 4.59695 4.59695 4 5.33333 4H12.6667C13.4031 4 14 4.59695 14 5.33333V12C14 12.7364 13.4031 13.3333 12.6667 13.3333H5.33333C4.59695 13.3333 4 12.7364 4 12V5.33333ZM5.33333 5.33333H12.6667V9.33333H5.33333V5.33333ZM12 12C11.6318 12 11.3333 11.7015 11.3333 11.3333C11.3333 10.9651 11.6318 10.6667 12 10.6667C12.3682 10.6667 12.6667 10.9651 12.6667 11.3333C12.6667 11.7015 12.3682 12 12 12ZM5.33333 11.3333C5.33333 11.7015 5.63181 12 6 12H8C8.3682 12 8.66667 11.7015 8.66667 11.3333C8.66667 10.9651 8.3682 10.6667 8 10.6667H6C5.63181 10.6667 5.33333 10.9651 5.33333 11.3333Z" fill="#626F86"/>
<path d="M2.66667 9.33325C2.29848 9.33325 2 9.63172 2 9.99992V10.6666C2 11.403 2.59695 11.9999 3.33333 11.9999V9.99992C3.33333 9.63172 3.03485 9.33325 2.66667 9.33325Z" fill="#626F86"/>
<path d="M2 5.99992C2 5.63173 2.29848 5.33325 2.66667 5.33325C3.03485 5.33325 3.33333 5.63173 3.33333 5.99992V7.99992C3.33333 8.36812 3.03485 8.66659 2.66667 8.66659C2.29848 8.66659 2 8.36812 2 7.99992V5.99992Z" fill="#626F86"/>
<path d="M5.33334 2.66667C5.33334 2.29848 5.63182 2 6.00001 2H8.66668C9.03488 2 9.33334 2.29848 9.33334 2.66667C9.33334 3.03485 9.03488 3.33333 8.66668 3.33333H6.00001C5.63182 3.33333 5.33334 3.03485 5.33334 2.66667Z" fill="#626F86"/>
<path d="M10.6667 2C10.2985 2 10 2.29848 10 2.66667C10 3.03485 10.2985 3.33333 10.6667 3.33333H12.6667C12.6667 2.59695 12.0697 2 11.3333 2H10.6667Z" fill="#626F86"/>
</svg>
